<?xml version="1.0" encoding="utf-8"?>
<!-- Generator: Adobe Illustrator 28.1.0, SVG Export Plug-In . SVG Version: 6.00 Build 0)  -->
<svg version="1.1" id="Layer_1" xmlns="http://www.w3.org/2000/svg" xmlns:xlink="http://www.w3.org/1999/xlink" x="0px" y="0px"
	 viewBox="0 0 474.5 474.2" style="enable-background:new 0 0 474.5 474.2;" xml:space="preserve">
<style type="text/css">
	.st0{fill:#FF9800;}
	.st1{fill:#022135;}
</style>
<path class="st0" d="M452.5,235c0,120-96.3,217.3-215.1,217.3S22.3,355,22.3,235c0-120,96.3-217.3,215.1-217.3
	S452.5,114.9,452.5,235"/>
<path class="st1" d="M311.5,439.2c-42.7,15.5-89.7,17.3-133.4,4.9c-42.1-12-79.6-36.9-107.4-70.6C13.1,304,6.5,202,53.3,125.1
	C99.9,48.7,192.1,8,279.9,26c87.5,17.9,155.8,89.5,170.1,177.6c1.8,11,2.5,22.3,2.5,33.4C452.2,326.1,395.7,408.7,311.5,439.2z
	 M431.1,100.3C402.9,60.9,363.7,30.7,318.2,14c-93-34.1-201.5-4.4-264.1,72.3c-31,38-49.7,84.3-53.4,133.2
	c-3.7,48.8,8.2,98.7,33.7,140.6C59,400.5,95.9,433.6,139.1,453c45.7,20.5,96.7,26.3,145.9,16.5c95.1-19.1,171.8-98.8,186.5-194.8
	c1.9-12.5,3-25,3-37.6C474.3,188.4,459.4,140,431.1,100.3"/>
<path class="st1" d="M227.8,10.8c0,15,0,29.9,0,44.9c0,36,0,71.9,0,107.9c0,43.5,0,87.1,0,130.6c0,37.8,0,75.7,0,113.5
	c0,18.2-0.8,36.7,0,54.9c0,0.3,0,0.5,0,0.8c0,12.1,18.8,12.1,18.8,0c0-15,0-29.9,0-44.9c0-36,0-71.9,0-107.9c0-43.5,0-87.1,0-130.6
	c0-37.8,0-75.7,0-113.5c0-18.2,0.8-36.6,0-54.8c0-0.3,0-0.5,0-0.8C246.7-1.3,227.8-1.3,227.8,10.8"/>
<path class="st1" d="M463.5,227.7c-15,0-29.9,0-44.9,0c-36,0-71.9,0-107.9,0c-43.5,0-87.1,0-130.6,0c-37.8,0-75.7,0-113.5,0
	c-18.2,0-36.7-0.8-54.9,0c-0.3,0-0.5,0-0.8,0c-12.1,0-12.1,18.8,0,18.8c15,0,29.9,0,44.9,0c36,0,71.9,0,107.9,0
	c43.5,0,87.1,0,130.6,0c37.8,0,75.7,0,113.5,0c18.2,0,36.6,0.8,54.8,0c0.3,0,0.5,0,0.8,0C475.6,246.5,475.7,227.7,463.5,227.7"/>
<path class="st1" d="M79.2,85.6c0.3,0.3,0.5,0.6,0.8,1c0.3,0.4,0.6,0.8,0.9,1.2c1.6,1.9-1.4-1.9,0.3,0.4c2.8,3.8,5.6,7.7,8.2,11.6
	c8.8,13.4,16.4,27.6,22.6,42.3c18.8,44.7,24.9,94.5,14.8,142.1c-8.2,38.8-26,74.3-49.1,106.4c-3,4.2-0.7,10.4,3.4,12.9
	c4.7,2.8,9.9,0.7,12.9-3.4c38.8-53.9,61.8-119,55.4-185.9c-4.1-42.4-18.5-83.9-41.2-119.9c-4.8-7.6-9.9-15.1-15.7-21.9
	C84.6,63,71.3,76.4,79.2,85.6"/>
<path class="st1" d="M382.8,72.2c-15.6,18.3-27.4,40.5-36.7,62.5c-20.5,48.7-26.7,102.5-15.8,154.4c8.5,40.2,27.1,77.7,51,110.9
	c3,4.2,8.2,6.1,12.9,3.4c4.1-2.3,6.3-8.8,3.4-12.9c-37.3-51.8-59.2-112.9-52.8-177.2c3.9-38.8,17.8-76.7,38.5-109.7
	c3.1-4.9,6.4-9.8,9.9-14.5c0.5-0.7,2.8-3.6,0.5-0.7c0.4-0.5,0.8-1.1,1.3-1.6c0.4-0.4,0.7-0.9,1.1-1.3C404,76.4,390.7,63,382.8,72.2"
	/>
<path class="st1" d="M120.7,86.2c15.1-13.7,33.9-24.5,52.7-32.1c3.7-1.5,2.1-7.6-1.7-6.1c-19.9,8.1-39.5,19.2-55.5,33.7
	C113.3,84.5,117.7,88.9,120.7,86.2"/>
<path class="st1" d="M187.7,49.2c8.2-2.1,16.5-4,24.9-5c4-0.4,4-6.7,0-6.3c-9,1-17.8,2.9-26.5,5.2C182.1,44.1,183.7,50.2,187.7,49.2
	"/>
<path class="st1" d="M361.4,393.1c-15.1,13.8-33.9,24.5-52.8,32.1c-3.7,1.5-2.1,7.6,1.7,6.1c19.9-8.1,39.5-19.2,55.5-33.7
	C368.8,394.8,364.4,390.4,361.4,393.1"/>
<path class="st1" d="M294.4,430.1c-8.1,2.1-16.5,4-24.9,5c-4,0.4-4,6.7,0,6.3c9-1,17.8-2.9,26.5-5.2
	C300,435.1,298.4,429.1,294.4,430.1"/>
<g>
	<g transform="translate(186.670655, 366.106082)">
	</g>
</g>
<g>
	<g transform="translate(188.222379, 366.106082)">
		<g>
			<path d="M53.3,102.5V102h-3.8v0.5H53.3z"/>
		</g>
	</g>
</g>
</svg>
