<svg xmlns="http://www.w3.org/2000/svg" xmlns:xlink="http://www.w3.org/1999/xlink" width="500" zoomAndPan="magnify" viewBox="0 0 375 374.999991" height="500" preserveAspectRatio="xMidYMid meet" version="1.0"><defs><clipPath id="e02226bfc2"><path d="M 78 15.519531 L 297 15.519531 L 297 234 L 78 234 Z M 78 15.519531 " clip-rule="nonzero"/></clipPath></defs><g clip-path="url(#e02226bfc2)"><path fill="#1e90ff" d="M 296.304688 124.28125 C 296.304688 126.058594 296.261719 127.839844 296.175781 129.617188 C 296.085938 131.394531 295.957031 133.167969 295.78125 134.941406 C 295.605469 136.714844 295.390625 138.480469 295.128906 140.238281 C 294.867188 142 294.5625 143.753906 294.214844 145.5 C 293.867188 147.246094 293.476562 148.984375 293.046875 150.710938 C 292.613281 152.4375 292.136719 154.152344 291.621094 155.855469 C 291.105469 157.558594 290.546875 159.25 289.945312 160.925781 C 289.347656 162.601562 288.707031 164.261719 288.023438 165.90625 C 287.34375 167.550781 286.621094 169.175781 285.863281 170.785156 C 285.101562 172.394531 284.300781 173.984375 283.460938 175.554688 C 282.621094 177.125 281.746094 178.671875 280.828125 180.199219 C 279.914062 181.726562 278.960938 183.230469 277.972656 184.710938 C 276.984375 186.191406 275.960938 187.644531 274.898438 189.074219 C 273.839844 190.503906 272.742188 191.910156 271.613281 193.285156 C 270.484375 194.660156 269.324219 196.007812 268.128906 197.328125 C 266.933594 198.644531 265.703125 199.933594 264.445312 201.195312 C 263.1875 202.453125 261.898438 203.679688 260.578125 204.875 C 259.261719 206.070312 257.914062 207.234375 256.535156 208.363281 C 255.160156 209.492188 253.757812 210.585938 252.328125 211.648438 C 250.898438 212.707031 249.441406 213.730469 247.964844 214.722656 C 246.484375 215.710938 244.980469 216.664062 243.453125 217.578125 C 241.925781 218.492188 240.378906 219.371094 238.808594 220.210938 C 237.238281 221.046875 235.648438 221.847656 234.039062 222.609375 C 232.429688 223.371094 230.800781 224.09375 229.15625 224.773438 C 227.511719 225.453125 225.851562 226.09375 224.175781 226.695312 C 222.5 227.292969 220.8125 227.851562 219.105469 228.371094 C 217.402344 228.886719 215.6875 229.359375 213.960938 229.792969 C 212.234375 230.226562 210.5 230.617188 208.753906 230.964844 C 207.007812 231.308594 205.253906 231.613281 203.492188 231.875 C 201.730469 232.136719 199.964844 232.355469 198.195312 232.527344 C 196.421875 232.703125 194.648438 232.835938 192.867188 232.921875 C 191.089844 233.007812 189.3125 233.054688 187.53125 233.054688 C 185.75 233.054688 183.972656 233.007812 182.195312 232.921875 C 180.417969 232.835938 178.640625 232.703125 176.871094 232.527344 C 175.097656 232.355469 173.332031 232.136719 171.570312 231.875 C 169.8125 231.613281 168.058594 231.308594 166.3125 230.964844 C 164.566406 230.617188 162.828125 230.226562 161.101562 229.792969 C 159.375 229.359375 157.660156 228.886719 155.957031 228.371094 C 154.253906 227.851562 152.5625 227.292969 150.886719 226.695312 C 149.210938 226.09375 147.550781 225.453125 145.90625 224.773438 C 144.261719 224.09375 142.632812 223.371094 141.023438 222.609375 C 139.414062 221.847656 137.828125 221.046875 136.257812 220.210938 C 134.6875 219.371094 133.136719 218.492188 131.609375 217.578125 C 130.085938 216.664062 128.582031 215.710938 127.101562 214.722656 C 125.621094 213.730469 124.164062 212.707031 122.734375 211.648438 C 121.304688 210.585938 119.902344 209.492188 118.527344 208.363281 C 117.152344 207.234375 115.804688 206.070312 114.484375 204.875 C 113.164062 203.679688 111.875 202.453125 110.617188 201.195312 C 109.359375 199.933594 108.132812 198.644531 106.9375 197.328125 C 105.742188 196.007812 104.578125 194.660156 103.449219 193.285156 C 102.320312 191.910156 101.226562 190.503906 100.164062 189.074219 C 99.105469 187.644531 98.078125 186.191406 97.089844 184.710938 C 96.101562 183.230469 95.148438 181.726562 94.234375 180.199219 C 93.320312 178.671875 92.441406 177.125 91.601562 175.554688 C 90.761719 173.984375 89.964844 172.394531 89.203125 170.785156 C 88.441406 169.175781 87.71875 167.550781 87.039062 165.90625 C 86.355469 164.261719 85.714844 162.601562 85.117188 160.925781 C 84.515625 159.25 83.960938 157.558594 83.441406 155.855469 C 82.925781 154.152344 82.449219 152.4375 82.019531 150.710938 C 81.585938 148.984375 81.195312 147.246094 80.847656 145.5 C 80.5 143.753906 80.195312 142 79.9375 140.238281 C 79.675781 138.480469 79.457031 136.714844 79.28125 134.941406 C 79.109375 133.167969 78.976562 131.394531 78.890625 129.617188 C 78.800781 127.839844 78.757812 126.058594 78.757812 124.28125 C 78.757812 122.5 78.800781 120.71875 78.890625 118.941406 C 78.976562 117.164062 79.109375 115.390625 79.28125 113.617188 C 79.457031 111.847656 79.675781 110.082031 79.9375 108.320312 C 80.195312 106.558594 80.5 104.804688 80.847656 103.058594 C 81.195312 101.3125 81.585938 99.578125 82.019531 97.851562 C 82.449219 96.125 82.925781 94.40625 83.441406 92.703125 C 83.960938 91 84.515625 89.3125 85.117188 87.636719 C 85.714844 85.957031 86.355469 84.296875 87.039062 82.652344 C 87.71875 81.007812 88.441406 79.382812 89.203125 77.773438 C 89.964844 76.164062 90.761719 74.574219 91.601562 73.003906 C 92.441406 71.433594 93.320312 69.886719 94.234375 68.359375 C 95.148438 66.832031 96.101562 65.328125 97.089844 63.847656 C 98.078125 62.367188 99.105469 60.914062 100.164062 59.484375 C 101.226562 58.054688 102.320312 56.652344 103.449219 55.273438 C 104.578125 53.898438 105.742188 52.550781 106.9375 51.230469 C 108.132812 49.914062 109.359375 48.625 110.617188 47.367188 C 111.875 46.105469 113.164062 44.878906 114.484375 43.683594 C 115.804688 42.488281 117.152344 41.324219 118.527344 40.195312 C 119.902344 39.066406 121.304688 37.972656 122.734375 36.914062 C 124.164062 35.851562 125.621094 34.828125 127.101562 33.839844 C 128.582031 32.847656 130.085938 31.898438 131.609375 30.980469 C 133.136719 30.066406 134.6875 29.1875 136.257812 28.351562 C 137.828125 27.511719 139.414062 26.710938 141.023438 25.949219 C 142.632812 25.1875 144.261719 24.46875 145.90625 23.785156 C 147.550781 23.105469 149.210938 22.464844 150.886719 21.863281 C 152.5625 21.265625 154.253906 20.707031 155.957031 20.191406 C 157.660156 19.671875 159.375 19.199219 161.101562 18.765625 C 162.828125 18.332031 164.566406 17.945312 166.3125 17.597656 C 168.058594 17.25 169.8125 16.945312 171.570312 16.683594 C 173.332031 16.421875 175.097656 16.203125 176.871094 16.03125 C 178.640625 15.855469 180.417969 15.726562 182.195312 15.636719 C 183.972656 15.550781 185.75 15.507812 187.53125 15.507812 C 189.3125 15.507812 191.089844 15.550781 192.867188 15.636719 C 194.648438 15.726562 196.421875 15.855469 198.195312 16.03125 C 199.964844 16.203125 201.730469 16.421875 203.492188 16.683594 C 205.253906 16.945312 207.007812 17.25 208.753906 17.597656 C 210.5 17.945312 212.234375 18.332031 213.960938 18.765625 C 215.6875 19.199219 217.402344 19.671875 219.105469 20.191406 C 220.808594 20.707031 222.5 21.265625 224.175781 21.863281 C 225.851562 22.464844 227.511719 23.105469 229.15625 23.785156 C 230.800781 24.46875 232.429688 25.1875 234.039062 25.949219 C 235.648438 26.710938 237.238281 27.511719 238.808594 28.351562 C 240.378906 29.1875 241.925781 30.066406 243.453125 30.980469 C 244.980469 31.898438 246.484375 32.847656 247.964844 33.839844 C 249.441406 34.828125 250.898438 35.851562 252.328125 36.914062 C 253.757812 37.972656 255.160156 39.066406 256.535156 40.195312 C 257.914062 41.324219 259.261719 42.488281 260.578125 43.683594 C 261.898438 44.878906 263.1875 46.105469 264.445312 47.367188 C 265.703125 48.625 266.933594 49.914062 268.128906 51.230469 C 269.324219 52.550781 270.484375 53.898438 271.613281 55.273438 C 272.742188 56.652344 273.839844 58.054688 274.898438 59.484375 C 275.960938 60.914062 276.984375 62.367188 277.972656 63.847656 C 278.960938 65.328125 279.914062 66.832031 280.828125 68.359375 C 281.746094 69.886719 282.621094 71.433594 283.460938 73.003906 C 284.300781 74.574219 285.101562 76.164062 285.863281 77.773438 C 286.621094 79.382812 287.34375 81.007812 288.023438 82.652344 C 288.707031 84.296875 289.347656 85.957031 289.945312 87.636719 C 290.546875 89.3125 291.105469 91 291.621094 92.703125 C 292.136719 94.40625 292.613281 96.125 293.046875 97.851562 C 293.476562 99.578125 293.867188 101.3125 294.214844 103.058594 C 294.5625 104.804688 294.867188 106.558594 295.128906 108.320312 C 295.390625 110.082031 295.605469 111.847656 295.78125 113.617188 C 295.957031 115.390625 296.085938 117.164062 296.175781 118.941406 C 296.261719 120.71875 296.304688 122.5 296.304688 124.28125 Z M 296.304688 124.28125 " fill-opacity="1" fill-rule="nonzero"/></g><path fill="#1e90ff" d="M 187.53125 240.585938 C 183.285156 240.585938 179.046875 240.726562 174.808594 241.007812 C 170.574219 241.285156 166.351562 241.707031 162.140625 242.265625 C 157.933594 242.824219 153.75 243.519531 149.585938 244.355469 C 145.421875 245.191406 141.292969 246.160156 137.195312 247.269531 C 133.097656 248.378906 129.039062 249.621094 125.023438 250.996094 C 121.003906 252.371094 117.039062 253.878906 113.121094 255.515625 C 109.207031 257.152344 105.347656 258.917969 101.546875 260.808594 C 97.746094 262.703125 94.011719 264.71875 90.34375 266.855469 C 86.675781 268.996094 83.085938 271.253906 79.566406 273.628906 C 76.046875 276.003906 72.613281 278.496094 69.257812 281.097656 C 65.902344 283.699219 62.640625 286.410156 59.464844 289.230469 C 56.289062 292.046875 53.210938 294.96875 50.230469 297.988281 C 47.246094 301.011719 44.367188 304.128906 41.589844 307.339844 C 38.8125 310.550781 36.148438 313.851562 33.589844 317.238281 C 31.03125 320.628906 28.585938 324.097656 26.257812 327.644531 C 23.925781 331.195312 21.714844 334.816406 19.625 338.511719 C 18.945312 339.71875 18.304688 340.945312 17.703125 342.195312 C 17.101562 343.441406 16.542969 344.707031 16.023438 345.992188 C 15.507812 347.277344 15.03125 348.578125 14.597656 349.894531 C 14.164062 351.210938 13.773438 352.539062 13.425781 353.878906 C 13.082031 355.21875 12.777344 356.570312 12.519531 357.933594 C 12.257812 359.292969 12.046875 360.660156 11.875 362.035156 C 11.707031 363.410156 11.582031 364.789062 11.5 366.171875 C 11.421875 367.554688 11.386719 368.941406 11.398438 370.324219 C 11.40625 371.710938 11.460938 373.09375 11.5625 374.476562 C 11.664062 375.855469 11.808594 377.234375 12 378.605469 C 12.191406 379.976562 12.425781 381.34375 12.703125 382.699219 C 12.984375 384.054688 13.304688 385.402344 13.671875 386.738281 C 14.039062 388.074219 14.449219 389.398438 14.902344 390.707031 C 15.355469 392.015625 15.851562 393.308594 16.386719 394.585938 C 16.925781 395.863281 17.503906 397.121094 18.125 398.359375 C 18.742188 399.597656 19.402344 400.816406 20.101562 402.011719 C 20.800781 403.207031 21.535156 404.378906 22.3125 405.527344 C 23.085938 406.675781 23.898438 407.796875 24.746094 408.894531 C 25.59375 409.988281 26.476562 411.054688 27.394531 412.09375 C 28.3125 413.128906 29.265625 414.136719 30.246094 415.113281 C 31.230469 416.089844 32.246094 417.03125 33.289062 417.941406 C 34.335938 418.851562 35.40625 419.726562 36.507812 420.5625 C 37.613281 421.402344 38.738281 422.207031 39.894531 422.972656 C 41.046875 423.738281 42.226562 424.46875 43.425781 425.15625 C 44.628906 425.847656 45.851562 426.496094 47.09375 427.105469 C 48.339844 427.714844 49.601562 428.285156 50.882812 428.8125 C 52.164062 429.339844 53.460938 429.824219 54.773438 430.265625 C 56.085938 430.710938 57.410156 431.109375 58.75 431.464844 C 60.089844 431.820312 61.4375 432.132812 62.796875 432.402344 C 64.15625 432.671875 65.519531 432.894531 66.894531 433.074219 C 68.269531 433.253906 69.648438 433.390625 71.027344 433.480469 C 72.410156 433.570312 73.796875 433.613281 75.179688 433.613281 L 299.921875 433.613281 C 301.304688 433.613281 302.691406 433.570312 304.074219 433.480469 C 305.457031 433.390625 306.832031 433.257812 308.207031 433.078125 C 309.582031 432.898438 310.949219 432.675781 312.308594 432.40625 C 313.667969 432.140625 315.015625 431.828125 316.355469 431.472656 C 317.691406 431.113281 319.019531 430.714844 320.332031 430.273438 C 321.644531 429.828125 322.941406 429.34375 324.222656 428.816406 C 325.503906 428.289062 326.765625 427.722656 328.011719 427.113281 C 329.253906 426.503906 330.476562 425.851562 331.679688 425.164062 C 332.878906 424.472656 334.058594 423.746094 335.210938 422.980469 C 336.367188 422.214844 337.496094 421.410156 338.597656 420.570312 C 339.699219 419.730469 340.773438 418.855469 341.816406 417.945312 C 342.863281 417.035156 343.875 416.09375 344.859375 415.117188 C 345.84375 414.140625 346.792969 413.136719 347.710938 412.097656 C 348.628906 411.058594 349.511719 409.992188 350.359375 408.898438 C 351.207031 407.800781 352.019531 406.679688 352.792969 405.53125 C 353.570312 404.382812 354.304688 403.210938 355.003906 402.015625 C 355.703125 400.816406 356.363281 399.597656 356.980469 398.359375 C 357.601562 397.121094 358.175781 395.863281 358.714844 394.585938 C 359.25 393.308594 359.746094 392.015625 360.199219 390.707031 C 360.652344 389.394531 361.0625 388.074219 361.425781 386.738281 C 361.792969 385.402344 362.117188 384.054688 362.394531 382.695312 C 362.671875 381.339844 362.90625 379.976562 363.097656 378.601562 C 363.285156 377.230469 363.429688 375.851562 363.53125 374.472656 C 363.628906 373.089844 363.683594 371.707031 363.695312 370.320312 C 363.703125 368.933594 363.667969 367.550781 363.585938 366.167969 C 363.507812 364.785156 363.378906 363.40625 363.210938 362.03125 C 363.039062 360.65625 362.824219 359.289062 362.5625 357.925781 C 362.304688 356.566406 362 355.214844 361.652344 353.875 C 361.304688 352.535156 360.910156 351.207031 360.476562 349.890625 C 360.042969 348.574219 359.566406 347.273438 359.046875 345.992188 C 358.527344 344.707031 357.964844 343.441406 357.363281 342.191406 C 356.761719 340.945312 356.121094 339.71875 355.4375 338.511719 C 353.347656 334.816406 351.136719 331.195312 348.808594 327.644531 C 346.480469 324.09375 344.035156 320.625 341.476562 317.238281 C 338.917969 313.847656 336.25 310.550781 333.476562 307.335938 C 330.699219 304.125 327.820312 301.007812 324.839844 297.988281 C 321.855469 294.964844 318.777344 292.042969 315.601562 289.226562 C 312.425781 286.40625 309.164062 283.695312 305.808594 281.09375 C 302.457031 278.488281 299.019531 276 295.5 273.625 C 291.984375 271.246094 288.390625 268.992188 284.722656 266.851562 C 281.054688 264.710938 277.320312 262.695312 273.519531 260.804688 C 269.71875 258.914062 265.859375 257.148438 261.945312 255.511719 C 258.027344 253.871094 254.058594 252.367188 250.042969 250.992188 C 246.027344 249.613281 241.96875 248.375 237.871094 247.265625 C 233.773438 246.15625 229.640625 245.1875 225.480469 244.351562 C 221.316406 243.515625 217.132812 242.820312 212.921875 242.261719 C 208.714844 241.703125 204.492188 241.285156 200.253906 241.003906 C 196.019531 240.726562 191.777344 240.585938 187.53125 240.585938 Z M 187.53125 240.585938 " fill-opacity="1" fill-rule="nonzero"/></svg>