<?xml version="1.0" standalone="no"?>
<!DOCTYPE svg PUBLIC "-//W3C//DTD SVG 20010904//EN"
 "http://www.w3.org/TR/2001/REC-SVG-20010904/DTD/svg10.dtd">
<svg version="1.0" xmlns="http://www.w3.org/2000/svg"
 width="950.000000pt" height="950.000000pt" viewBox="0 0 950.000000 950.000000"
 preserveAspectRatio="xMidYMid meet">
<metadata>
Created by potrace 1.14, written by Peter Selinger 2001-2017
</metadata>
<g transform="translate(0.000000,950.000000) scale(0.100000,-0.100000)"
fill="#000000" stroke="none">
<path d="M4455 9480 c-880 -72 -1658 -336 -2355 -799 -1105 -734 -1861 -1938
-2049 -3266 -36 -254 -45 -387 -46 -660 0 -285 11 -445 50 -710 152 -1027 636
-1971 1386 -2700 522 -507 1113 -867 1799 -1096 339 -113 674 -184 1065 -225
197 -21 670 -24 860 -6 649 63 1173 212 1725 492 894 454 1649 1210 2104 2108
336 665 501 1362 501 2122 0 289 -10 423 -51 705 -88 602 -297 1196 -602 1710
-208 350 -428 631 -732 936 -291 291 -572 514 -896 710 -622 376 -1243 586
-1964 664 -171 19 -638 27 -795 15z m720 -451 c286 -23 652 -104 963 -211 465
-160 902 -401 1289 -711 145 -116 168 -138 157 -152 -5 -7 -48 -66 -95 -131
-144 -199 -246 -369 -376 -628 -290 -579 -462 -1107 -553 -1701 -23 -150 -50
-423 -50 -502 l0 -53 -785 0 -785 0 0 1738 c0 956 3 1880 7 2054 l6 315 51 -4
c28 -2 105 -8 171 -14z m-615 -2039 l0 -2050 -773 0 -773 0 -12 167 c-57 780
-317 1614 -722 2313 -73 126 -269 426 -335 511 l-35 47 77 64 c474 392 1057
696 1633 852 304 82 660 142 868 145 l72 1 0 -2050z m-2834 587 c503 -729 810
-1568 883 -2407 6 -69 13 -149 16 -177 l5 -53 -1086 0 -1087 0 6 123 c22 413
151 958 324 1366 185 436 435 830 756 1188 45 51 84 92 87 93 3 0 46 -60 96
-133z m6228 31 c251 -275 481 -618 661 -983 169 -344 261 -604 344 -971 50
-221 90 -515 91 -661 l0 -53 -1080 0 -1080 0 0 38 c0 55 19 261 36 397 69 554
292 1226 581 1749 126 228 343 566 364 566 4 0 42 -37 83 -82z m-5329 -3130
c-3 -40 -11 -122 -16 -183 -72 -781 -374 -1590 -882 -2363 l-100 -153 -24 23
c-35 33 -217 246 -287 337 -246 319 -480 752 -616 1136 -140 398 -225 827
-242 1218 l-3 57 1088 0 1088 0 -6 -72z m1935 -1550 c0 -893 -3 -1816 -7
-2052 l-6 -429 -106 7 c-775 49 -1539 322 -2185 779 -84 59 -186 139 -324 253
l-26 22 90 133 c585 863 934 1819 1005 2752 l12 157 774 0 773 0 0 -1622z
m1950 1559 c0 -189 58 -604 125 -891 126 -544 377 -1140 703 -1671 78 -128
241 -373 252 -380 22 -14 5 -35 -92 -116 -660 -549 -1437 -874 -2306 -963 -84
-9 -175 -16 -202 -16 l-50 0 0 2050 0 2050 785 0 785 0 0 -63z m2536 -34 c-46
-652 -258 -1328 -599 -1903 -88 -148 -242 -370 -350 -505 -116 -145 -213 -253
-219 -245 -19 20 -149 223 -229 357 -360 602 -614 1289 -708 1908 -17 109 -51
427 -51 472 0 11 195 13 1081 13 l1081 0 -6 -97z"/>
<path d="M4052 8704 c-178 -32 -333 -72 -354 -91 -34 -31 -9 -113 35 -113 7 0
74 14 148 31 73 17 195 42 269 54 109 19 138 28 152 46 20 24 23 51 8 80 -14
26 -86 24 -258 -7z"/>
<path d="M3285 8467 c-342 -155 -631 -333 -887 -547 -77 -64 -88 -77 -88 -105
0 -18 8 -39 18 -48 33 -30 71 -21 131 31 147 126 347 267 516 364 105 60 342
177 430 213 79 32 101 49 110 85 7 30 -26 80 -53 80 -9 -1 -89 -33 -177 -73z"/>
<path d="M7176 1576 c-277 -235 -576 -413 -999 -594 -39 -16 -53 -53 -37 -92
19 -47 45 -47 156 0 340 145 672 343 931 556 117 96 134 124 105 163 -35 48
-69 40 -156 -33z"/>
<path d="M5780 859 c-63 -15 -182 -40 -263 -54 -82 -14 -153 -28 -159 -31 -16
-10 -28 -54 -22 -80 4 -14 16 -29 28 -34 42 -15 468 61 569 102 51 20 56 92 8
117 -25 14 -25 14 -161 -20z"/>
</g>
</svg>
